<svg width="75" height="75" viewBox="0 0 75 75" fill="none" xmlns="http://www.w3.org/2000/svg">
<path fill-rule="evenodd" clip-rule="evenodd" d="M65.0189 23.8188L64.9189 22.3594H50.6251V6.25H47.5001V22.3594H26.9501V6.25H23.8251V22.3594H9.90013V23.9219C9.77825 40.725 16.2439 52.0969 29.1251 57.7406V65.6719C29.1066 66.8843 29.5476 68.0588 30.3595 68.9594C31.2506 69.8463 32.4722 70.3199 33.7283 70.2656L40.547 70.325C41.7734 70.3853 42.965 69.907 43.8095 69.0156C44.5779 68.1012 44.9661 66.9267 44.8939 65.7344V57.8281C55.9595 53.9688 66.2501 42.1875 65.0189 23.8188ZM42.8719 55.1937L41.7563 55.5281V65.875C41.7791 66.2399 41.679 66.6019 41.4719 66.9031C41.2111 67.1215 40.8726 67.2242 40.5344 67.1875L33.7219 67.1281C33.3194 67.1646 32.9184 67.0436 32.6032 66.7906C32.3559 66.49 32.224 66.111 32.2313 65.7219V55.625L31.2594 55.2312C19.2688 50.375 13.2907 40.625 13.0219 25.4844H61.9719C62.5 41.8937 52.8813 52.1875 42.8719 55.1937Z" fill="black"/>
</svg>
