<svg fill="none" height="460" viewBox="0 0 608 460" width="608" xmlns="http://www.w3.org/2000/svg" xmlns:xlink="http://www.w3.org/1999/xlink"><linearGradient id="a" gradientUnits="userSpaceOnUse" x1="11.924" x2="222.817" y1="392.512" y2="393.212"><stop offset="0" stop-color="#e11d38"/><stop offset="1" stop-color="#781135"/></linearGradient><linearGradient id="b" gradientUnits="userSpaceOnUse" x1="145.533" x2="332.811" y1="365.675" y2="383.279"><stop offset="0" stop-color="#338fd9"/><stop offset="1" stop-color="#80b9e7"/></linearGradient><clipPath id="c"><path d="m0 0h608v460h-608z"/></clipPath><mask id="d" height="135" maskUnits="userSpaceOnUse" width="211" x="14" y="324"><path d="m86.1682 327.213-68.8336 68.382c-3.8283 3.803-3.8533 9.997-.0418 13.825l48.9066 49.233h158.6556c.477-2.984-.426-6.144-2.716-8.451l-122.137-122.939c-1.9143-1.923-4.4219-2.884-6.9379-2.884-2.5159 0-4.9817.945-6.8875 2.842" fill="#fff"/></mask><mask id="e" height="169" maskUnits="userSpaceOnUse" width="178" x="147" y="290"><path d="m242.041 290.802-89.079 38.467c-4.956 2.14-7.238 7.891-5.098 12.847l50.319 116.537h126.207c-.025-1.221-.284-2.458-.802-3.653l-68.7-159.099c-1.596-3.694-5.199-5.901-8.977-5.901-1.296 0-2.608.259-3.87.802z" fill="#fff"/></mask><g clip-path="url(#c)"><path d="m0 0h608v460h-608z" fill="#3375ce"/><path d="m1093.67 210.162s-337.865 93.718-653.067-78.986c-315.202-172.7045-529.0295-162.9781-529.0295-162.9781l1182.7365-78.1979-.64 320.17z" fill="#0053c2"/><path d="m437.111 156.168-50.448-181.9364c-1.568-5.6706 1.746-11.5342 7.417-13.1103l101.861-28.2445c5.67-1.5683 11.542 1.7459 13.11 7.4165l50.448 181.9367c1.568 5.67-1.746 11.534-7.417 13.11l-101.861 28.245c-5.67 1.568-11.534-1.746-13.11-7.417z" fill="#012169"/><path d="m433.654-34.1086-10.973 3.0432 47.774 172.2674 10.973-3.043z" fill="#0053c2"/><path d="m415.203-28.9913-5.486 1.5216 29.552 106.5615 5.486-1.5216z" fill="#0053c2"/><path d="m-117.849 269.38s179.194-4.28 376.883 105.639 315.866 97.457 315.866 97.457h-693.9l1.159-203.089z" fill="#0053c2"/><path d="m-30.8338 218.176s32.91578 2.984 84.7796 16.29" stroke="#0053c2" stroke-linecap="round" stroke-miterlimit="10" stroke-width="18"/><path d="m407.574 382.563c33.929 17.509 73.246 35.73 123.134 50.249 54.734 15.926 85.371 15.309 85.371 15.309" stroke="#0053c2" stroke-linecap="round" stroke-miterlimit="10" stroke-width="18"/><path d="m-42.3281 18s77.2013 2.8198 183.1721 37.3221c53.307 17.3593 113.89 42.7377 175.587 79.8049" stroke="#0053c2" stroke-linecap="round" stroke-miterlimit="10" stroke-width="18"/><path d="m-92.7041 121.025c41.0282-.942 151.0886-27.2143 396.3321 109.15 204.215 113.548 327.372 109.398 327.372 109.398" stroke="#ccdcf3" stroke-miterlimit="10" stroke-width="11.9709"/><path d="m393.905 274.403-19.936-26.487-.806 17.669-12.162 12.848z" fill="#e31837"/><path d="m114.919 146.075-19.9432-26.487-.8061 17.669-12.1624 12.849z" fill="#e31837"/><path d="m465.851 305.875c0 43.813 35.522 79.335 79.335 79.335 43.814 0 79.335-35.522 79.335-79.335 0-43.814-35.521-79.335-79.335-79.335-43.813 0-79.335 35.521-79.335 79.335z" fill="#012169"/><path d="m-8.30273 126.274c0 16.36 13.26374 29.616 29.61593 29.616 16.3523 0 29.616-13.264 29.616-29.616 0-16.353-13.2637-29.6163-29.616-29.6163-16.35219 0-29.61593 13.2633-29.61593 29.6163z" fill="#012169"/><path d="m20.5998 133.666c-1.4046-.056-2.905-.359-4.1101-1.005l.7343-1.972c1.7158.75 3.1363.846 3.9663.846 1.3009 0 2.1707-.471 2.1707-1.716 0-1.029-.806-1.404-2.0111-1.755-2.3702-.655-4.501-1.165-4.501-3.831 0-2.115 1.3407-3.615 3.7509-3.887v-1.995h1.5961v1.972c1.0454.079 2.2505.335 3.2161.869l-.7342 1.9c-1.4205-.575-2.3143-.631-3.2002-.631-1.1492 0-1.8994.575-1.8994 1.66 0 1.006 1.1812 1.325 2.4501 1.636 1.6599.415 4.086 1.006 4.086 4.07 0 2.195-1.5402 3.576-3.9264 3.831v1.971h-1.5961v-1.955z" fill="#cce3f5"/><path d="m195.201 192.755c0 27.972 22.673 50.645 50.645 50.645s50.645-22.673 50.645-50.645-22.673-50.645-50.645-50.645-50.645 22.673-50.645 50.645z" fill="#012169"/><g fill="#cce3f5"><path d="m234.419 203.308c-2.107-.088-4.358-.535-6.161-1.508l1.093-2.961c2.578 1.125 4.709 1.277 5.954 1.277 1.955 0 3.256-.71 3.256-2.578 0-1.54-1.213-2.107-3.025-2.633-3.551-.974-6.751-1.748-6.751-5.746 0-3.169 2.011-5.419 5.626-5.834v-2.993h2.402v2.961c1.572.12 3.376.503 4.828 1.301l-1.093 2.841c-2.131-.862-3.464-.95-4.796-.95-1.716 0-2.841.862-2.841 2.49 0 1.508 1.779 1.987 3.671 2.458 2.49.623 6.129 1.508 6.129 6.105 0 3.288-2.315 5.363-5.898 5.746v2.961h-2.402v-2.937z"/><path d="m253.652 203.308c-2.107-.088-4.357-.535-6.161-1.508l1.093-2.961c2.578 1.125 4.709 1.277 5.954 1.277 1.955 0 3.256-.71 3.256-2.578 0-1.54-1.213-2.107-3.025-2.633-3.551-.974-6.751-1.748-6.751-5.746 0-3.169 2.011-5.419 5.626-5.834v-2.993h2.402v2.961c1.572.12 3.376.503 4.828 1.301l-1.093 2.841c-2.131-.862-3.463-.95-4.796-.95-1.716 0-2.841.862-2.841 2.49 0 1.508 1.779 1.987 3.671 2.458 2.49.623 6.129 1.508 6.129 6.105 0 3.288-2.315 5.363-5.898 5.746v2.961h-2.402v-2.937z"/><path d="m519.005 318.292c-2.626-.112-5.443-.671-7.701-1.892l1.372-3.703c3.225 1.405 5.89 1.597 7.446 1.597 2.442 0 4.07-.886 4.07-3.225 0-1.923-1.516-2.625-3.774-3.296-4.446-1.221-8.444-2.186-8.444-7.182 0-3.958 2.522-6.776 7.039-7.294v-3.743h3.001v3.703c1.963.151 4.221.63 6.033 1.628l-1.373 3.551c-2.665-1.077-4.333-1.181-6.001-1.181-2.147 0-3.551 1.077-3.551 3.112 0 1.892 2.218 2.482 4.588 3.073 3.113.774 7.662 1.891 7.662 7.629 0 4.11-2.889 6.704-7.366 7.183v3.703h-3.001z"/><path d="m543.074 318.292c-2.625-.112-5.442-.671-7.701-1.892l1.373-3.703c3.224 1.405 5.889 1.597 7.446 1.597 2.442 0 4.07-.886 4.07-3.225 0-1.923-1.517-2.625-3.775-3.296-4.445-1.221-8.444-2.186-8.444-7.182 0-3.958 2.522-6.776 7.039-7.294v-3.743h3.001v3.703c1.963.151 4.222.63 6.033 1.628l-1.372 3.551c-2.666-1.077-4.334-1.181-6.002-1.181-2.147 0-3.551 1.077-3.551 3.112 0 1.892 2.219 2.482 4.589 3.073 3.112.774 7.661 1.891 7.661 7.629 0 4.11-2.889 6.704-7.366 7.183v3.703h-3.001z"/><path d="m567.104 318.292c-2.626-.112-5.443-.671-7.701-1.892l1.372-3.703c3.224 1.405 5.89 1.597 7.446 1.597 2.442 0 4.07-.886 4.07-3.225 0-1.923-1.516-2.625-3.775-3.296-4.445-1.221-8.443-2.186-8.443-7.182 0-3.958 2.522-6.776 7.039-7.294v-3.743h3.001v3.703c1.963.151 4.221.63 6.033 1.628l-1.373 3.551c-2.665-1.077-4.333-1.181-6.001-1.181-2.147 0-3.552 1.077-3.552 3.112 0 1.892 2.219 2.482 4.589 3.073 3.113.774 7.662 1.891 7.662 7.629 0 4.11-2.889 6.704-7.366 7.183v3.703h-3.001z"/></g><g mask="url(#d)"><path d="m13.4988 323.715-.4475 134.958 212.2757.704.447-134.958z" fill="url(#a)"/></g><path d="m75.068 390.672-11.8777-11.953c-.8693-.878-.861-2.29.0084-3.16l11.9528-11.877c.8777-.87 2.2903-.87 3.1596.008l11.8777 11.953c.8693.878.8693 2.29-.0084 3.16l-11.9529 11.877c-.8776.869-2.2902.87-3.1595-.008z" fill="#780032"/><path d="m51.1568 381.657-7.4185 7.369 115.6427 116.413 7.419-7.37z" fill="#780032"/><path d="m38.6848 394.047-3.7063 3.682 71.5385 72.014 3.706-3.682z" fill="#780032"/><g mask="url(#e)"><path d="m147.285 273.326-17.28 183.833 192.82 18.125 17.28-183.833z" fill="url(#b)"/></g><path d="m208.355 345.861-6.678-15.472c-.494-1.137.033-2.449 1.17-2.942l15.472-6.679c1.136-.493 2.449.033 2.942 1.162l6.679 15.472c.493 1.137-.034 2.449-1.171 2.942l-15.472 6.679c-1.136.493-2.449-.034-2.942-1.171" fill="#cce3f5"/><path d="m189.395 328.73-9.601 4.145 65.037 150.65 9.6-4.145z" fill="#cce3f5"/><path d="m173.257 335.695-4.796 2.07 40.232 93.195 4.797-2.071z" fill="#cce3f5"/></g></svg>